<svg xmlns="http://www.w3.org/2000/svg" width="30" height="29.267" viewBox="0 0 30 29.267">
  <path id="github" d="M143,128a14.673,14.673,0,0,1,7.529,2.012,14.933,14.933,0,0,1,5.459,5.459,15.022,15.022,0,0,1-8.242,21.768.874.874,0,0,1-.781-.137.764.764,0,0,1-.254-.586q0-.059.01-1.494t.01-2.627a3.479,3.479,0,0,0-1.016-2.773,13.377,13.377,0,0,0,2-.352,7.978,7.978,0,0,0,1.836-.762,5.459,5.459,0,0,0,1.582-1.3,6.044,6.044,0,0,0,1.035-2.051,9.847,9.847,0,0,0,.4-2.939,5.786,5.786,0,0,0-1.543-4.023,5.2,5.2,0,0,0-.156-3.984,2.559,2.559,0,0,0-1.582.215,10.518,10.518,0,0,0-1.8.859l-.742.469a14.1,14.1,0,0,0-7.5,0q-.313-.215-.83-.527a11.71,11.71,0,0,0-1.631-.752,2.69,2.69,0,0,0-1.66-.264,5.2,5.2,0,0,0-.156,3.984,5.786,5.786,0,0,0-1.543,4.023,9.749,9.749,0,0,0,.4,2.93,6.289,6.289,0,0,0,1.025,2.051,5.261,5.261,0,0,0,1.572,1.309,7.978,7.978,0,0,0,1.836.762,13.377,13.377,0,0,0,2,.352,3.3,3.3,0,0,0-.957,2.012,3.873,3.873,0,0,1-.879.293,5.527,5.527,0,0,1-1.113.1,2.3,2.3,0,0,1-1.279-.42,3.443,3.443,0,0,1-1.084-1.221,3.151,3.151,0,0,0-.947-1.016,2.851,2.851,0,0,0-.967-.469l-.391-.059a1.267,1.267,0,0,0-.566.088q-.156.088-.1.225a1.076,1.076,0,0,0,.176.273,1.427,1.427,0,0,0,.254.234l.137.1a2.358,2.358,0,0,1,.85.742,4.886,4.886,0,0,1,.615,1l.2.449a2.476,2.476,0,0,0,.859,1.2,3.039,3.039,0,0,0,1.309.586,8.343,8.343,0,0,0,1.357.137,5.746,5.746,0,0,0,1.084-.068l.449-.078q0,.742.01,1.729t.01,1.064a.764.764,0,0,1-.254.586.874.874,0,0,1-.781.137,15.035,15.035,0,0,1-8.242-21.768,14.933,14.933,0,0,1,5.459-5.459A14.673,14.673,0,0,1,143,128Zm-9.316,21.543q.059-.137-.137-.234-.2-.059-.254.039-.059.137.137.234Q133.605,149.7,133.684,149.543Zm.605.664q.137-.1-.039-.312-.2-.176-.312-.059-.137.1.039.313Q134.172,150.344,134.289,150.207Zm.586.879q.176-.137,0-.371-.156-.254-.332-.117-.176.1,0,.352T134.875,151.086Zm.82.82q.156-.156-.078-.371-.234-.234-.391-.059-.176.156.078.371Q135.539,152.082,135.7,151.906Zm1.113.488q.059-.215-.254-.312-.293-.078-.371.137t.254.293Q136.73,152.629,136.809,152.395Zm1.23.1q0-.254-.332-.215-.312,0-.312.215,0,.254.332.215Q138.039,152.707,138.039,152.492Zm1.133-.2q-.039-.215-.352-.176-.312.059-.273.293t.352.156Q139.211,152.492,139.172,152.3Z" transform="translate(-128 -128)"/>
</svg>
