<svg xmlns="http://www.w3.org/2000/svg" width="30" height="24.365" viewBox="0 0 30 24.365">
  <path id="twitter" d="M138,258.893a12.882,12.882,0,0,1-3.084,3.179q.019.267.019.8a17.467,17.467,0,0,1-.723,4.94,17.851,17.851,0,0,1-2.2,4.73,18.6,18.6,0,0,1-3.512,4.007,15.637,15.637,0,0,1-4.911,2.779,17.975,17.975,0,0,1-6.148,1.037,17.074,17.074,0,0,1-9.442-2.76,13.162,13.162,0,0,0,1.485.076,12.038,12.038,0,0,0,7.633-2.627,6.161,6.161,0,0,1-5.749-4.264,7.786,7.786,0,0,0,1.161.1,6.361,6.361,0,0,0,1.618-.209,6.049,6.049,0,0,1-3.531-2.122,5.94,5.94,0,0,1-1.4-3.912v-.076a6.1,6.1,0,0,0,2.779.78,6.141,6.141,0,0,1-2-2.189,6.163,6.163,0,0,1,.1-6.034,17.429,17.429,0,0,0,5.606,4.54,17.133,17.133,0,0,0,7.072,1.894,6.83,6.83,0,0,1-.152-1.409,6.154,6.154,0,0,1,10.641-4.207,12.057,12.057,0,0,0,3.9-1.485,5.969,5.969,0,0,1-2.7,3.388A12.25,12.25,0,0,0,138,258.893Z" transform="translate(-108 -256)"/>
</svg>
