<svg xmlns="http://www.w3.org/2000/svg" width="449" height="343" viewBox="0 0 449 343"><g transform="translate(-716 -598)"><g transform="translate(914 851)" fill="#6f6f6f" stroke="#000" stroke-width="7"><path d="M0,0H53a0,0,0,0,1,0,0V80A10,10,0,0,1,43,90H10A10,10,0,0,1,0,80V0A0,0,0,0,1,0,0Z" stroke="none"/><path d="M7,3.5H46A3.5,3.5,0,0,1,49.5,7V80A6.5,6.5,0,0,1,43,86.5H10A6.5,6.5,0,0,1,3.5,80V7A3.5,3.5,0,0,1,7,3.5Z" fill="none"/></g><g transform="translate(716 598)" fill="#1e1e1e" stroke="#000" stroke-width="7"><rect width="449" height="281" rx="10" stroke="none"/><rect x="3.5" y="3.5" width="442" height="274" rx="6.5" fill="none"/></g><path d="M3,0H78a0,0,0,0,1,0,0V267a0,0,0,0,1,0,0H3a3,3,0,0,1-3-3V3A3,3,0,0,1,3,0Z" transform="translate(724 605)" fill="#383838"/><path d="M0,0H127a3,3,0,0,1,3,3V14a0,0,0,0,1,0,0H0a0,0,0,0,1,0,0V0A0,0,0,0,1,0,0Z" transform="translate(1028 605)" fill="#5c5454"/><rect width="60" height="14" transform="translate(968 605)" fill="#6f6f6f"/><rect width="102" height="14" transform="translate(866 605)" fill="#5c5454"/><rect width="64" height="14" transform="translate(802 605)" fill="#6f6f6f"/><rect width="40" height="7" rx="3.5" transform="translate(746 627)" fill="#b4b4b4"/><rect width="26" height="7" rx="3.5" transform="translate(833 627)" fill="#5995b5"/><rect width="26" height="7" rx="3.5" transform="translate(833 640)" fill="#5995b5"/><rect width="26" height="7" rx="3.5" transform="translate(833 653)" fill="#5995b5"/><rect width="14" height="7" rx="3.5" transform="translate(815 627)" fill="#9d709d"/><rect width="14" height="7" rx="3.5" transform="translate(815 640)" fill="#9d709d"/><rect width="14" height="7" rx="3.5" transform="translate(815 653)" fill="#9d709d"/><rect width="10" height="7" rx="3.5" transform="translate(815 674)" fill="#5995b5"/><rect width="12" height="7" rx="3.5" transform="translate(815 689)" fill="#b4b42b"/><rect width="19" height="7" rx="3.5" transform="translate(826 704)" fill="#9d709d"/><rect width="86" height="7" rx="3.5" transform="translate(826 720)" fill="#5995b5"/><rect width="80" height="7" rx="3.5" transform="translate(826 735)" fill="#5995b5"/><rect width="34" height="7" rx="3.5" transform="translate(815 813)" fill="#9d709d"/><rect width="34" height="7" rx="3.5" transform="translate(852 813)" fill="#509e8b"/><rect width="15" height="7" rx="3.5" transform="translate(828 674)" fill="#509e8b"/><rect width="10" height="7" rx="3.5" transform="translate(846 674)" fill="#5995b5"/><rect width="19" height="7" rx="3.5" transform="translate(859 674)" fill="#509e8b"/><rect width="7" height="7" rx="3.5" transform="translate(881 674)" fill="#b4b4b4"/><rect width="7" height="7" rx="3.5" transform="translate(817 766)" fill="#b4b4b4"/><rect width="43" height="7" rx="3.5" transform="translate(746 639)" fill="#b4b4b4"/><rect width="38" height="7" rx="3.5" transform="translate(746 651)" fill="#b4b4b4"/><rect width="43" height="7" rx="3.5" transform="translate(746 663)" fill="#b4b4b4"/><rect width="25" height="7" rx="3.5" transform="translate(753 688)" fill="#b4b4b4"/><rect width="38" height="7" rx="3.5" transform="translate(753 700)" fill="#b4b4b4"/><rect width="38" height="7" rx="3.5" transform="translate(753 712)" fill="#b4b4b4"/><rect width="38" height="7" rx="3.5" transform="translate(753 724)" fill="#b4b4b4"/><rect width="25" height="7" rx="3.5" transform="translate(747 738)" fill="#b4b4b4"/><rect width="38" height="7" rx="3.5" transform="translate(747 750)" fill="#b4b4b4"/><rect width="38" height="7" rx="3.5" transform="translate(747 762)" fill="#b4b4b4"/><rect width="38" height="7" rx="3.5" transform="translate(747 774)" fill="#b4b4b4"/><rect width="38" height="7" rx="3.5" transform="translate(747 786)" fill="#b4b4b4"/><rect width="38" height="7" rx="3.5" transform="translate(747 798)" fill="#b4b4b4"/><rect width="38" height="7" rx="3.5" transform="translate(747 810)" fill="#b4b4b4"/><rect width="38" height="7" rx="3.5" transform="translate(747 822)" fill="#b4b4b4"/><rect width="38" height="7" rx="3.5" transform="translate(747 834)" fill="#b4b4b4"/><rect width="38" height="7" rx="3.5" transform="translate(747 846)" fill="#b4b4b4"/><rect width="9" height="7" rx="3.5" transform="translate(734 627)" fill="#b4b42b"/><rect width="9" height="7" rx="3.5" transform="translate(734 639)" fill="#5995b5"/><rect width="9" height="7" rx="3.5" transform="translate(734 651)" fill="#b4b42b"/><rect width="9" height="7" rx="3.5" transform="translate(734 663)" fill="#b4b42b"/><rect width="9" height="7" rx="3.5" transform="translate(738 676)" fill="#b4b4b4"/><rect width="9" height="7" rx="3.5" transform="translate(741 688)" fill="#b4b42b"/><rect width="9" height="7" rx="3.5" transform="translate(741 700)" fill="#5995b5"/><rect width="9" height="7" rx="3.5" transform="translate(741 712)" fill="#b4b42b"/><rect width="9" height="7" rx="3.5" transform="translate(741 724)" fill="#b4b42b"/><rect width="9" height="7" rx="3.5" transform="translate(735 738)" fill="#b4b42b"/><rect width="9" height="7" rx="3.5" transform="translate(735 750)" fill="#5995b5"/><rect width="9" height="7" rx="3.5" transform="translate(735 762)" fill="#b4b42b"/><rect width="9" height="7" rx="3.5" transform="translate(735 774)" fill="#b4b42b"/><rect width="9" height="7" rx="3.5" transform="translate(735 786)" fill="#5995b5"/><rect width="9" height="7" rx="3.5" transform="translate(735 798)" fill="#b4b42b"/><rect width="9" height="7" rx="3.5" transform="translate(735 810)" fill="#5995b5"/><rect width="9" height="7" rx="3.5" transform="translate(735 822)" fill="#5995b5"/><rect width="9" height="7" rx="3.5" transform="translate(735 834)" fill="#b4b42b"/><rect width="9" height="7" rx="3.5" transform="translate(735 846)" fill="#b4b42b"/><line x2="21" transform="translate(1050.5 630.5)" fill="none" stroke="#b4b42b" stroke-linecap="round" stroke-width="7"/><line x2="30" transform="translate(1050.5 643.5)" fill="none" stroke="#5995b5" stroke-linecap="round" stroke-width="7"/><line x2="26" transform="translate(1050.5 655.5)" fill="none" stroke="#5995b5" stroke-linecap="round" stroke-width="7"/><circle cx="3.5" cy="3.5" r="3.5" transform="translate(1079 627)" fill="#b4b4b4"/><circle cx="3.5" cy="3.5" r="3.5" transform="translate(1047 663)" fill="#b4b4b4"/><rect width="28" height="7" rx="3.5" transform="translate(1047 627)" fill="#b4b42b"/><rect width="37" height="7" rx="3.5" transform="translate(1047 640)" fill="#5995b5"/><rect width="33" height="7" rx="3.5" transform="translate(1047 652)" fill="#5995b5"/><rect width="7" height="7" rx="3.5" transform="translate(1079 627)" fill="#b4b4b4"/><rect width="7" height="7" rx="3.5" transform="translate(1047 663)" fill="#b4b4b4"/><line x2="21" transform="translate(1050.5 693.5)" fill="none" stroke="#b4b42b" stroke-linecap="round" stroke-width="7"/><line x2="30" transform="translate(1050.5 706.5)" fill="none" stroke="#5995b5" stroke-linecap="round" stroke-width="7"/><line x2="26" transform="translate(1050.5 718.5)" fill="none" stroke="#5995b5" stroke-linecap="round" stroke-width="7"/><circle cx="3.5" cy="3.5" r="3.5" transform="translate(1079 690)" fill="#b4b4b4"/><circle cx="3.5" cy="3.5" r="3.5" transform="translate(1047 726)" fill="#b4b4b4"/><rect width="28" height="7" rx="3.5" transform="translate(1047 690)" fill="#b4b42b"/><rect width="37" height="7" rx="3.5" transform="translate(1047 703)" fill="#5995b5"/><rect width="33" height="7" rx="3.5" transform="translate(1047 715)" fill="#5995b5"/><rect width="7" height="7" rx="3.5" transform="translate(1079 690)" fill="#b4b4b4"/><rect width="7" height="7" rx="3.5" transform="translate(1047 726)" fill="#b4b4b4"/><line x2="21" transform="translate(1050.5 756.5)" fill="none" stroke="#b4b42b" stroke-linecap="round" stroke-width="7"/><line x2="30" transform="translate(1050.5 769.5)" fill="none" stroke="#5995b5" stroke-linecap="round" stroke-width="7"/><line x2="26" transform="translate(1050.5 781.5)" fill="none" stroke="#5995b5" stroke-linecap="round" stroke-width="7"/><circle cx="3.5" cy="3.5" r="3.5" transform="translate(1079 753)" fill="#b4b4b4"/><circle cx="3.5" cy="3.5" r="3.5" transform="translate(1047 789)" fill="#b4b4b4"/><rect width="28" height="7" rx="3.5" transform="translate(1047 753)" fill="#b4b42b"/><rect width="37" height="7" rx="3.5" transform="translate(1047 766)" fill="#5995b5"/><rect width="33" height="7" rx="3.5" transform="translate(1047 778)" fill="#5995b5"/><rect width="7" height="7" rx="3.5" transform="translate(1079 753)" fill="#b4b4b4"/><rect width="7" height="7" rx="3.5" transform="translate(1047 789)" fill="#b4b4b4"/><line x2="21" transform="translate(1050.5 819.5)" fill="none" stroke="#b4b42b" stroke-linecap="round" stroke-width="7"/><line x2="30" transform="translate(1050.5 832.5)" fill="none" stroke="#5995b5" stroke-linecap="round" stroke-width="7"/><line x2="26" transform="translate(1050.5 844.5)" fill="none" stroke="#5995b5" stroke-linecap="round" stroke-width="7"/><circle cx="3.5" cy="3.5" r="3.5" transform="translate(1079 816)" fill="#b4b4b4"/><circle cx="3.5" cy="3.5" r="3.5" transform="translate(1047 852)" fill="#b4b4b4"/><rect width="28" height="7" rx="3.5" transform="translate(1047 816)" fill="#b4b42b"/><rect width="37" height="7" rx="3.5" transform="translate(1047 829)" fill="#5995b5"/><rect width="33" height="7" rx="3.5" transform="translate(1047 841)" fill="#5995b5"/><rect width="7" height="7" rx="3.5" transform="translate(1079 816)" fill="#b4b4b4"/><rect width="7" height="7" rx="3.5" transform="translate(1047 852)" fill="#b4b4b4"/><rect width="3" height="254" transform="translate(1028 619)" fill="#464343"/></g></svg>