<svg xmlns="http://www.w3.org/2000/svg" width="26.033" height="23.143" viewBox="0 0 26.033 23.143">
  <path id="edit" d="M18.182,15.517l1.446-1.446a.363.363,0,0,1,.619.258V20.9a2.17,2.17,0,0,1-2.169,2.169H2.169A2.17,2.17,0,0,1,0,20.9V4.99A2.17,2.17,0,0,1,2.169,2.821H14.531a.364.364,0,0,1,.258.619L13.342,4.886a.358.358,0,0,1-.258.1H2.169V20.9H18.078V15.77A.355.355,0,0,1,18.182,15.517ZM25.26,6.4,13.392,18.265l-4.086.452a1.867,1.867,0,0,1-2.061-2.061L7.7,12.57,19.565.7A2.638,2.638,0,0,1,23.3.7l1.952,1.952a2.647,2.647,0,0,1,0,3.742Zm-4.465,1.4L18.169,5.167l-8.4,8.4-.33,2.951,2.951-.33Zm2.929-3.6L21.771,2.238a.472.472,0,0,0-.669,0l-1.4,1.4L22.331,6.26l1.4-1.4A.482.482,0,0,0,23.724,4.19Z" transform="translate(0.001 0.074)" fill="#959595"/>
</svg>
