<svg xmlns="http://www.w3.org/2000/svg" width="584.264" height="438.197" viewBox="0 0 584.264 438.197">
  <path id="envelope" d="M529.489,64H54.775A54.774,54.774,0,0,0,0,118.775V447.423A54.774,54.774,0,0,0,54.775,502.2H529.489a54.774,54.774,0,0,0,54.775-54.775V118.775A54.774,54.774,0,0,0,529.489,64Zm0,54.775v46.564c-25.587,20.836-66.378,53.235-153.583,121.52-19.218,15.117-57.286,51.433-83.774,51.01-26.484.428-64.565-35.9-83.775-51.01-87.191-68.274-127.993-100.68-153.583-121.52V118.775ZM54.775,447.423v-211.8C80.923,256.452,118,285.678,174.524,329.936c24.942,19.633,68.621,62.975,117.608,62.711,48.746.264,91.872-42.449,117.6-62.7,56.518-44.257,93.61-73.491,119.759-94.319v211.8Z" transform="translate(0 -64)" fill="#eff4f7"/>
</svg>
